<?xml version="1.0" standalone="no"?>
<!DOCTYPE svg PUBLIC "-//W3C//DTD SVG 1.1//EN" "http://www.w3.org/Graphics/SVG/1.1/DTD/svg11.dtd" >
<svg xmlns="http://www.w3.org/2000/svg" xmlns:xlink="http://www.w3.org/1999/xlink" version="1.1">
<metadata></metadata>
<defs>
<font id="brother_1816regular" horiz-adv-x="1675" >
<font-face units-per-em="2048" ascent="1554" descent="-494" />
<missing-glyph horiz-adv-x="540" />
<glyph horiz-adv-x="0" />
<glyph horiz-adv-x="682" />
<glyph horiz-adv-x="0" />
<glyph horiz-adv-x="0" />
<glyph unicode="&#xd;" horiz-adv-x="681" />
<glyph unicode=" "  horiz-adv-x="540" />
<glyph unicode="&#x09;" horiz-adv-x="540" />
<glyph unicode="&#xa0;" horiz-adv-x="540" />
<glyph unicode="!" horiz-adv-x="614" d="M188 90q0 53 33 85t86 32t86 -33t33 -84t-33 -83t-86 -32t-86 32t-33 83zM211 1475h192l-12 -1080h-168z" />
<glyph unicode="&#x22;" horiz-adv-x="720" d="M92 895v580h178v-580h-178zM451 895v580h178v-580h-178z" />
<glyph unicode="#" horiz-adv-x="1515" d="M82 403l18 150h299l50 367h-295l18 149h297l55 406h162l-55 -406h346l55 406h160l-53 -406h295l-23 -149h-295l-49 -367h295l-21 -150h-294l-56 -403h-162l56 403h-344l-56 -403h-161l55 403h-297zM561 553h344l49 367h-344z" />
<glyph unicode="$" horiz-adv-x="1210" d="M147 1104q0 170 119 274.5t318 118.5l8 248h96l-10 -248q178 -11 328 -74v-186q-150 80 -334 86l-17 -506l9 -2q225 -82 322 -181t97 -257q0 -178 -121.5 -283.5t-336.5 -116.5l-9 -247h-94l8 247q-209 10 -376 84v195q186 -94 383 -104l18 516l-2 -6q-215 76 -310.5 178 t-95.5 264zM340 1110q0 -82 50 -142.5t171 -113.5l17 465q-111 -14 -174.5 -69.5t-63.5 -139.5zM631 154q121 12 190.5 67t69.5 141q0 90 -54.5 149.5t-189.5 115.5z" />
<glyph unicode="%" horiz-adv-x="1722" d="M109 1141q0 152 100 254q102 104 245.5 104t245.5 -104q100 -102 101 -254q0 -150 -101 -252q-102 -104 -245.5 -104.5t-245.5 104.5q-100 102 -100 252zM246 1141q0 -98 60.5 -165t148.5 -67t149.5 66.5t61.5 165t-61.5 166t-149.5 67.5t-148.5 -66.5t-60.5 -166.5z M266 0l1051 1475h139l-1050 -1475h-140zM922 332q0 152 100 254q100 104 245.5 104t245.5 -104q100 -102 101 -254q0 -150 -101 -252q-100 -104 -245.5 -104.5t-245.5 104.5q-100 102 -100 252zM1059 332q0 -98 60.5 -165t148.5 -67t149.5 66.5t61.5 165t-61.5 166 t-149.5 67.5t-148.5 -66.5t-60.5 -166.5z" />
<glyph unicode="&#x26;" horiz-adv-x="1347" d="M61 371q0 236 314 405q-94 102 -136 183t-42 184q0 145 106 250q106 106 272 106q158 0 267 -100q111 -98 110 -236q0 -266 -323 -420l354 -364q88 160 72 377h170q20 -291 -117 -508l240 -248h-224l-127 133q-170 -158 -426 -158q-236 0 -373 113t-137 283zM246 387 q0 -113 91 -183.5t236 -70.5q179 0 306 121l-402 416q-231 -121 -231 -283zM367 1147q0 -76 34.5 -139.5t120.5 -155.5q262 133 262 295q0 82 -61 138t-147.5 56t-147.5 -56t-61 -138z" />
<glyph unicode="'" horiz-adv-x="362" d="M92 895v580h178v-580h-178z" />
<glyph unicode="(" horiz-adv-x="618" d="M143.5 737.5q-0.5 501.5 225.5 874.5h198q-231 -391 -231 -874.5t231 -874.5h-198q-225 373 -225.5 874.5z" />
<glyph unicode=")" horiz-adv-x="618" d="M51 -137q231 391 231 874.5t-231 874.5h199q225 -373 225 -874.5t-225 -874.5h-199z" />
<glyph unicode="*" horiz-adv-x="878" d="M82 1188l49 147l242 -92l-13 256h158l-12 -256l242 92l49 -147l-254 -70l162 -207l-117 -84l-150 209l-147 -209l-117 84l162 207z" />
<glyph unicode="+" horiz-adv-x="1349" d="M188 659v156h406v410h160v-410h407v-156h-407v-409h-160v409h-406z" />
<glyph unicode="," horiz-adv-x="417" d="M10 -307l125 426h189l-166 -426h-148z" />
<glyph unicode="-" horiz-adv-x="794" d="M92 500v157h610v-157h-610z" />
<glyph unicode="." horiz-adv-x="421" d="M92 90q0 53 33 85t86 32t86 -33t33 -84t-33 -83t-86 -32t-86 32t-33 83z" />
<glyph unicode="/" horiz-adv-x="929" d="M-10 -137l747 1749h203l-747 -1749h-203z" />
<glyph unicode="0" horiz-adv-x="1323" d="M102 737.5q0 331.5 154 546.5t405.5 215t405.5 -215t154 -546.5t-154 -547t-405.5 -215.5t-405.5 215.5t-154 547zM301 737q0 -260 98.5 -419.5t262 -159.5t262 159.5t98.5 419.5t-98.5 420t-262 160t-262 -160t-98.5 -420z" />
<glyph unicode="1" horiz-adv-x="696" d="M90 1305v170h381v-1475h-197v1305h-184z" />
<glyph unicode="2" horiz-adv-x="1048" d="M10 0q389 438 484 567q195 268 198 461q0 131 -80 210t-215 79q-170 -1 -313 -103v189q143 96 332 96q217 0 348 -131q131 -129 131 -336q0 -68 -16 -143q-16 -72 -60 -150l-74 -131q-27 -45 -112 -149q-74 -90 -115 -135q-6 -8 -137 -154h586v-170h-957z" />
<glyph unicode="3" horiz-adv-x="980" d="M23 57v181q172 -86 350 -86q135 0 219 68.5t84 178.5q0 133 -101.5 207t-283.5 74h-43v156h59q150 0 246 69q98 69 98 182q0 111 -77.5 173.5t-213.5 62.5q-162 0 -311 -76v180q150 72 336 72q215 0 342 -108q129 -109 129 -283q0 -121 -73.5 -213t-194.5 -135 q131 -37 212 -139.5t81 -239.5q0 -178 -140 -293q-137 -113 -356 -113q-205 0 -362 82z" />
<glyph unicode="4" horiz-adv-x="1140" d="M41 354l508 1121h196l-428 -953h424v385h174v-385h205v-168h-205v-354h-176v354h-698z" />
<glyph unicode="5" horiz-adv-x="1028" d="M92 72v180q137 -100 332 -100q152 0 246 83.5t94 223.5q0 135 -97.5 217t-248.5 82q-162 0 -291 -60l31 777h719v-170h-545l-17 -406q72 27 170 27q207 0 344 -135q137 -131 138 -349q0 -213 -148 -340q-145 -127 -377 -127q-207 1 -350 97z" />
<glyph unicode="6" horiz-adv-x="1193" d="M102 475q0 254 191 545q195 295 409 455h261q-174 -129 -319.5 -290t-235.5 -313q90 78 219 78q209 0 348 -141q137 -139 137 -342q0 -211 -145 -352q-145 -139 -363 -140q-215 0 -360 140q-141 141 -142 360zM281 473q0 -147 90 -239.5t233 -92.5q141 0 232 92 q92 92 92 233.5t-92 233.5q-90 92 -231.5 92.5t-233.5 -92.5q-90 -90 -90 -227z" />
<glyph unicode="7" horiz-adv-x="1001" d="M10 1305v170h951l-637 -1475h-209l575 1305h-680z" />
<glyph unicode="8" horiz-adv-x="1107" d="M82 352q0 133 87 237t224 161q-111 47 -194 145q-84 102 -84 233q0 160 125 266.5t315 106.5q188 0 313 -106q127 -109 127 -267q0 -131 -84 -233q-84 -98 -194 -145q133 -61 217 -158q92 -100 92 -240q0 -164 -133 -272q-131 -106 -338 -106.5t-340 106.5 q-133 109 -133 272zM270 373q0 -100 82 -164q84 -66 203 -66q121 0 202 65.5t81 164.5q0 92 -78 172t-205 129q-127 -49 -206 -129t-79 -172zM303 1112q0 -174 252 -283q252 109 252 283q0 94 -72.5 157.5t-179.5 63.5q-109 0 -180.5 -63.5t-71.5 -157.5z" />
<glyph unicode="9" horiz-adv-x="1130" d="M61 1008q0 211 143.5 352t364.5 141q215 0 357 -141q143 -141 143 -361q0 -254 -190 -544q-190 -293 -408 -455h-260q174 129 319.5 290t235.5 312q-90 -78 -219 -78q-209 0 -348 142q-137 139 -138 342zM246 1007.5q0 -139.5 90 -233.5q92 -92 233.5 -92t231.5 90 q92 92 92 229q0 147 -90.5 240.5t-233.5 93.5q-141 0 -233 -94q-90 -94 -90 -233.5z" />
<glyph unicode=":" horiz-adv-x="421" d="M92 90q0 53 33 85t86 32t86 -33t33 -84t-33 -83t-86 -32t-86 32t-33 83zM92 932q0 53 33 85t86 32t86 -33t33 -84t-33 -83t-86 -32t-86 32t-33 83z" />
<glyph unicode=";" horiz-adv-x="421" d="M10 -307l125 426h189l-166 -426h-148zM92 932q0 53 33 85t86 32t86 -33t33 -84t-33 -83t-86 -32t-86 32t-33 83z" />
<glyph unicode="&#x3c;" horiz-adv-x="1193" d="M117 737l884 543v-203l-569 -340l569 -340v-202z" />
<glyph unicode="=" horiz-adv-x="1288" d="M188 465v158h912v-158h-912zM188 852v158h912v-158h-912z" />
<glyph unicode="&#x3e;" horiz-adv-x="1193" d="M193 195v202l569 340l-569 340v203l884 -543z" />
<glyph unicode="?" horiz-adv-x="925" d="M72 1239v178q133 82 303 82q186 0 301 -102q117 -100 117 -267q0 -182 -129 -311q-16 -16 -62.5 -59t-68 -66.5t-51 -62.5t-43 -79t-13.5 -83v-76h-172v94q0 172 123 291q6 6 58 54.5t66.5 65.5t46.5 57t43 77t11 80q0 98 -63.5 156.5t-173.5 58.5q-156 0 -293 -88z M223 90q0 53 33 85t86 32t86 -33t33 -84t-33 -83t-86 -32t-86 32t-33 83z" />
<glyph unicode="@" horiz-adv-x="1787" d="M160 514q0 358 243 590q248 231 641 231q242 0 378.5 -109.5t136.5 -299.5v-633q-260 -129 -486 -129q-174 0 -289 96q-113 94 -112 256q0 209 196.5 307.5t501.5 48.5v54q0 117 -88 180t-248 63q-307 0 -495 -180q-190 -182 -191 -461q0 -295 201 -489 q199 -193 508 -193q291 0 561 127v-166q-242 -125 -563 -124q-389 0 -643 235q-252 233 -252 596zM856 530q0 -100 62.5 -158.5t175.5 -58.5q119 0 272 66v371q-238 41 -373 -23q-137 -63 -137 -197z" />
<glyph unicode="A" horiz-adv-x="1363" d="M0 0l680 1499h4l680 -1499h-209l-145 328h-658l-143 -328h-209zM424 489h514q-170 381 -256 611q-98 -255 -258 -611z" />
<glyph unicode="B" horiz-adv-x="1292" d="M195 0v1475h452q217 0 350 -109t133 -295q0 -98 -49 -178t-135 -119q111 -41 177.5 -139t66.5 -219q0 -186 -135 -301q-137 -115 -355 -115h-505zM385 160h322q127 0 204.5 72.5t77.5 191.5q0 117 -66.5 187.5t-177.5 70.5h-360v-522zM385 836h391q70 18 112 78.5 t42 146.5q0 117 -73 185.5t-195 68.5h-277v-479z" />
<glyph unicode="C" horiz-adv-x="1368" d="M82 737.5q0 325.5 219 544.5q219 217 557 217q258 0 438 -106v-187q-219 111 -438 111q-252 0 -416 -164q-162 -162 -162 -414q0 -255 162 -417q164 -164 416 -164q236 0 449 108v-186q-176 -104 -449 -105q-338 0 -557 218q-219 219 -219 544.5z" />
<glyph unicode="D" horiz-adv-x="1488" d="M195 0v1475h423q352 0 572 -203q217 -203 217 -534.5t-215 -534.5q-213 -203 -565 -203h-432zM391 166h234q258 0 419 158q162 156 162 413.5t-162 413.5q-164 158 -428 158h-225v-1143z" />
<glyph unicode="E" horiz-adv-x="1212" d="M195 0v1475h905v-166h-709v-480h598v-165h-598v-498h739v-166h-935z" />
<glyph unicode="F" horiz-adv-x="1126" d="M195 0v1475h860v-166h-664v-490h559v-166h-559v-653h-196z" />
<glyph unicode="G" horiz-adv-x="1443" d="M82 737q0 330 223 545q223 217 563 217q246 0 439 -104v-189q-217 111 -443 111q-258 0 -422 -164q-162 -162 -162 -414q0 -255 162 -420q163 -163 413 -163h3q174 0 291 53v444h192v-565q-205 -113 -483 -113q-338 0 -557 218q-219 219 -219 544z" />
<glyph unicode="H" horiz-adv-x="1513" d="M195 0v1475h196v-646h731v646h197v-1475h-197v664h-731v-664h-196z" />
<glyph unicode="I" horiz-adv-x="585" d="M195 0v1475h196v-1475h-196z" />
<glyph unicode="J" horiz-adv-x="765" d="M20 16v179q70 -43 173 -43q182 0 182 192v1131h196v-1096q0 -403 -358 -404q-121 0 -193 41z" />
<glyph unicode="K" horiz-adv-x="1366" d="M195 0v1475h196v-789l703 789h243l-542 -592l551 -883h-230l-454 745l-271 -292v-453h-196z" />
<glyph unicode="L" horiz-adv-x="1067" d="M195 0v1475h196v-1309h635v-166h-831z" />
<glyph unicode="M" horiz-adv-x="1730" d="M195 0v1499h2l667 -817l670 817h2v-1499h-190v987l-39 -47l-443 -534l-440 534l-39 47v-987h-190z" />
<glyph unicode="N" horiz-adv-x="1550" d="M195 0v1499h2l915 -993l47 -51v1020h197v-1500h-2l-916 994l-47 51v-1020h-196z" />
<glyph unicode="O" d="M82 737q0 322 217 541q217 221 539 221q317 0 536 -219t219 -543q0 -326 -217 -542q-218 -219 -538 -219q-1 0 -2 -1q-319 0 -537 220q-217 216 -217 542zM438 322q160 -164 399.5 -164t397.5 164q158 168 158 415q0 250 -158 414q-158 166 -397.5 166t-399.5 -166 q-157 -163 -157 -411q0 -251 157 -418z" />
<glyph unicode="P" horiz-adv-x="1220" d="M195 0v1475h452q236 0 369 -120t133 -331t-133 -331t-369 -120h-256v-573h-196zM391 739h266q137 0 214 76t77 209t-82 209t-225 76h-250v-570z" />
<glyph unicode="Q" horiz-adv-x="1736" d="M113 737q0 322 217 541q219 221 538 221q317 0 536.5 -219t219.5 -543q0 -283 -170 -489q-168 -207 -436 -258q129 -111 299 -178q172 -68 323 -68q125 0 211 23v-177q-77 -24 -216 -24h-11q-217 0 -450 115q-229 113 -386 299q-291 27 -485 241q-190 213 -190 516z M311 737q0 -248 158 -415q160 -164 399.5 -164t397.5 164q157 167 157 412q0 253 -157 417q-156 166 -398 166q-239 0 -399 -166q-158 -164 -158 -414z" />
<glyph unicode="R" horiz-adv-x="1304" d="M195 0v1475h477q244 0 381 -120t137 -331q0 -154 -84 -264.5t-217 -149.5l334 -610h-219l-306 578h-307v-578h-196zM391 739h291q145 0 228 76t83 209t-86.5 209t-240.5 76h-275v-570z" />
<glyph unicode="S" horiz-adv-x="1089" d="M82 1104q0 184 137 289q137 106 354 106q201 0 367 -76v-186q-162 86 -356 86q-137 0 -223.5 -57.5t-86.5 -155.5q0 -96 73 -164.5t251 -130.5q225 -82 322.5 -181t97.5 -257q0 -188 -135.5 -295t-368.5 -107q-229 0 -426 86v195q211 -104 416 -104q143 0 232 57t89 153 q0 102 -71.5 168t-255.5 129q-219 76 -317.5 178.5t-98.5 266.5z" />
<glyph unicode="T" horiz-adv-x="1136" d="M20 1309v166h1096v-166h-450v-1309h-197v1309h-449z" />
<glyph unicode="U" horiz-adv-x="1464" d="M164 516v959h196v-945q0 -174 98.5 -273t272.5 -99t273.5 99t99.5 273v945h196v-959q0 -254 -151.5 -397.5t-417.5 -143.5t-416.5 143.5t-150.5 397.5z" />
<glyph unicode="V" horiz-adv-x="1343" d="M-10 1475h211l202 -461q244 -553 269 -619q25 66 268 619l203 461h211l-680 -1500h-4z" />
<glyph unicode="W" horiz-adv-x="2043" d="M20 1475h213l236 -617q35 -94 143 -407q37 104 154 387l250 616h4l250 -616q117 -283 153 -387q109 313 144 407l235 617h213l-592 -1500h-4l-317 801q-70 176 -84 221l-84 -221l-318 -801h-4z" />
<glyph unicode="X" horiz-adv-x="1396" d="M72 0l518 748l-504 727h225l387 -576l389 576h226l-504 -727l518 -748h-227l-402 594l-401 -594h-225z" />
<glyph unicode="Y" horiz-adv-x="1241" d="M-10 1475h219l412 -701l411 701h219l-532 -889v-586h-197v586z" />
<glyph unicode="Z" horiz-adv-x="1251" d="M72 0l794 1309h-743v166h1046l-794 -1309h794v-166h-1097z" />
<glyph unicode="[" horiz-adv-x="677" d="M215 -137v1749h340v-166h-145v-1417h145v-166h-340z" />
<glyph unicode="\" horiz-adv-x="929" d="M-10 1612h203l747 -1749h-203z" />
<glyph unicode="]" horiz-adv-x="677" d="M123 29h145v1417h-145v166h340v-1749h-340v166z" />
<glyph unicode="^" horiz-adv-x="1116" d="M102 737l457 762l455 -760h-203l-252 445l-256 -447h-201z" />
<glyph unicode="_" horiz-adv-x="1245" d="M92 0h1061v-158h-1061v158z" />
<glyph unicode="`" horiz-adv-x="624" d="M92 1499h248l192 -346h-172z" />
<glyph unicode="a" horiz-adv-x="1095" d="M90 276q0 193 176 277q115 55 289 55q93 0 203 -16v51q0 240 -269 240q-190 0 -333 -86v176q139 76 360 76q430 0 430 -396v-653h-176l-2 121l6 82h-4q-20 -47 -94 -125q-102 -102 -262 -103q-145 0 -234.5 82t-89.5 219zM279 283q0 -68 45.5 -111t121.5 -43 q127 0 217.5 102.5t90.5 227.5q-100 16 -180 16q-104 1 -173 -27q-122 -48 -122 -165z" />
<glyph unicode="b" horiz-adv-x="1302" d="M186 0v1475h191v-529l-6 -84h4q45 80 143 133.5t213 53.5q205 0 336 -150q135 -150 135 -387.5t-135 -386.5q-135 -150 -340 -150q-117 0 -219 66q-98 63 -143 156h-5q6 -31 7 -76l-5 -121h-176zM379 512q0 -178 96 -274.5t225 -96.5q139 0 230 105q88 102 88 266 q0 166 -88 266q-91 105 -230 105q-129 0 -225 -96.5t-96 -274.5z" />
<glyph unicode="c" horiz-adv-x="1042" d="M100 512.5q0 235.5 150 384.5q152 152 385 152q164 0 315 -80v-181q-145 90 -305 91q-154 0 -252 -103q-98 -100 -98 -264q0 -162 96 -264q98 -103 254 -103q162 0 311 91v-179q-152 -82 -321 -82q-233 0 -385 152q-150 150 -150 385.5z" />
<glyph unicode="d" horiz-adv-x="1304" d="M100 512q0 236 133 387q135 150 338 150q115 0 213.5 -53.5t143.5 -133.5h4q-6 31 -6 84v529h190v-1475h-176l-4 121l6 76h-4q-45 -92 -143 -156q-102 -66 -220 -66q-205 0 -339 150q-135 150 -136 387zM285 512q0 -164 88 -266q90 -104 229 -105q129 0 225.5 96.5 t96.5 274.5t-96.5 274.5t-225.5 96.5q-139 0 -229 -105q-88 -100 -88 -266z" />
<glyph unicode="e" horiz-adv-x="1159" d="M100 512q0 233 144 383q145 154 358 154q217 0 340 -140q123 -139 123 -338q0 -18 -2 -58t-2 -42h-762v-2q4 -152 100.5 -240t255.5 -88q219 0 371 97v-175q-156 -88 -383 -88q-244 0 -393.5 149.5t-149.5 387.5zM301 606h576v6q0 117 -74 196q-76 81 -203 81 q-121 0 -204 -81t-95 -202z" />
<glyph unicode="f" horiz-adv-x="696" d="M63 868v156h158v115q0 166 99.5 263t271.5 97q76 0 125 -12v-166q-49 12 -107 12q-100 0 -155.5 -54t-55.5 -157v-98h273v-156h-266v-868h-191v868h-152z" />
<glyph unicode="g" horiz-adv-x="1095" d="M82 -172q0 86 80 156.5t203 95.5q-74 10 -116 45t-42 86q0 45 38 84t103 59q-113 41 -177.5 129t-64.5 203q0 160 119 260q121 102 297 103q92 0 162 -25h373v-143h-142l-57 8l-12 2q90 -84 90 -205q0 -150 -107 -248q-106 -100 -268 -108h-2q-70 -6 -118 -29.5 t-48 -52.5q0 -37 49.5 -54.5t192.5 -33.5q209 -25 308 -92.5t99 -200.5q0 -145 -135 -229q-135 -86 -356 -87q-217 0 -343 73t-126 204zM266 -150q0 -78 77 -120.5t210 -42.5q135 0 217 46t82 122q0 168 -313 168q-117 0 -195 -50.5t-78 -122.5zM285 682q0 -96 66.5 -157.5 t170.5 -61.5q106 0 173 61.5t67 157.5t-66.5 158.5t-173.5 62.5q-104 0 -170.5 -62.5t-66.5 -158.5z" />
<glyph unicode="h" horiz-adv-x="1261" d="M186 0v1475h189v-570q0 -14 -1 -38.5t-3 -43t-2 -20.5h2q45 92 141 168q100 78 244 78q350 0 350 -406v-643h-191v604q0 125 -39.5 196.5t-154.5 71.5q-150 0 -248 -106q-96 -106 -96 -262v-504h-191z" />
<glyph unicode="i" horiz-adv-x="563" d="M162 1321q0 53 32.5 85t86 32t86 -33t32.5 -84t-32.5 -83t-86 -32t-86 32t-32.5 83zM186 0v1024h191v-1024h-191z" />
<glyph unicode="j" horiz-adv-x="563" d="M-72 -295q25 -8 70 -8q88 0 138 55t50 156v1116h191v-1143q0 -170 -89 -263t-253 -93q-76 0 -107 14v166zM162 1321q0 53 32.5 85t86 32t86 -33t32.5 -84t-32.5 -83t-86 -32t-86 32t-32.5 83z" />
<glyph unicode="k" horiz-adv-x="1153" d="M186 0v1475h191v-965l463 514h227l-371 -422l400 -602h-219l-324 496l-178 -193v-303h-189z" />
<glyph unicode="l" horiz-adv-x="634" d="M186 262v1213h191v-1174q0 -82 27.5 -119t91.5 -37q53 0 90 13v-164q-55 -18 -137 -19q-125 0 -194 72t-69 215z" />
<glyph unicode="m" horiz-adv-x="1916" d="M186 0v1024h179l4 -143q0 -63 -9 -78h5q43 111 145 178.5t229 67.5q117 0 200 -62.5t108 -171.5h2q49 102 147 168t209 66q358 0 358 -406v-643h-190v606q0 131 -44 198.5t-149 67.5q-156 0 -231 -118q-78 -119 -78 -279v-475h-190v608q0 131 -42 197.5t-147 66.5 q-152 0 -233 -118q-82 -115 -82 -279v-475h-191z" />
<glyph unicode="n" horiz-adv-x="1261" d="M186 0v1024h179l4 -143q0 -63 -9 -78h5q37 90 141 166q104 80 250 80q350 0 350 -406v-643h-191v604q0 125 -39.5 196.5t-154.5 71.5q-150 0 -248 -106q-96 -106 -96 -262v-504h-191z" />
<glyph unicode="o" horiz-adv-x="1255" d="M100 512q0 233 150 383q152 154 377 154q229 0 379 -154q150 -150 150 -381q0 -234 -150 -387q-152 -152 -379 -152q-225 0 -377 152q-150 152 -150 385zM285 512q0 -160 96 -266q99 -105 246 -105q152 0 245 105q99 105 99 268q0 161 -99 264q-94 104 -245 105 q-147 0 -246 -105q-96 -106 -96 -266z" />
<glyph unicode="p" horiz-adv-x="1304" d="M188 -451v1475h177l4 -106l-7 -76h5q45 86 143 145q100 61 219 62q205 0 340 -152t135 -385q0 -238 -135 -387q-131 -150 -336 -150q-115 0 -213 57.5t-143 143.5h-4q6 -31 6 -84v-543h-191zM381 512q0 -178 96 -274.5t225 -96.5q139 0 230 103q88 102 88 268 q0 164 -88 266q-88 104 -230 105q-129 0 -225 -96.5t-96 -274.5z" />
<glyph unicode="q" horiz-adv-x="1304" d="M100 512q0 233 135.5 385t339.5 152q117 0 220 -62q98 -59 143 -145h4q-6 31 -6 76l4 106h176v-1475h-190v543l6 84h-4q-45 -86 -143.5 -143.5t-213.5 -57.5q-203 0 -338 150q-133 152 -133 387zM285 512q0 -166 88 -268q90 -103 229 -103q129 0 225.5 96.5t96.5 274.5 t-96.5 274.5t-225.5 96.5q-139 0 -229 -105q-88 -102 -88 -266z" />
<glyph unicode="r" horiz-adv-x="778" d="M172 0v1024h178l2 -143l-2 -76h2q102 244 316 244q37 0 61 -7v-184q-25 6 -53 6q-141 0 -227 -129q-86 -125 -87 -289v-446h-190z" />
<glyph unicode="s" horiz-adv-x="901" d="M100 760q0 127 103 207q102 82 264 82q156 0 289 -62v-172q-137 72 -269 72q-94 0 -151 -35t-57 -98q0 -55 48 -91t162 -75q176 -57 250 -129t74 -195q0 -135 -100.5 -212t-272.5 -77q-193 0 -334 68v174q174 -84 328 -84q92 0 147.5 33.5t55.5 99.5q0 59 -48 94t-179 78 q-160 51 -235 124t-75 198z" />
<glyph unicode="t" horiz-adv-x="761" d="M37 868v156h170v307h186v-307h309v-156h-309v-530q0 -195 152 -195q100 0 192 45v-165q-88 -47 -229 -48q-135 0 -219 77t-84 229v587h-168z" />
<glyph unicode="u" horiz-adv-x="1251" d="M156 381v643h190v-604q0 -125 40 -196.5t155 -71.5q143 0 239 104q94 106 94 264v504h191v-1024h-178l-4 143q0 23 6 66l2 12h-4q-35 -86 -139 -168q-102 -78 -242 -78q-350 0 -350 406z" />
<glyph unicode="v" horiz-adv-x="1011" d="M-4 1024h203l307 -748l307 748h203l-459 -1049h-102z" />
<glyph unicode="w" horiz-adv-x="1581" d="M-2 1024h203l278 -743l260 729h105l258 -729l280 743h201l-430 -1049h-104l-258 699l-259 -699h-104z" />
<glyph unicode="x" horiz-adv-x="1069" d="M47 0l371 516l-357 508h218l251 -377l254 377h222l-359 -496l377 -528h-215l-274 389l-273 -389h-215z" />
<glyph unicode="y" horiz-adv-x="1060" d="M-2 -299q47 -12 111 -12q109 0 180 76.5t143 246.5l-428 1012h211l143 -371l54 -141q63 -160 118 -307l175 448l141 371h211l-404 -977q-104 -258 -211 -385q-115 -137 -313 -137q-92 0 -131 18v158z" />
<glyph unicode="z" horiz-adv-x="970" d="M51 0l547 864h-506v160h809l-547 -864h555v-160h-858z" />
<glyph unicode="{" horiz-adv-x="692" d="M92 664v147q76 6 119 62.5t43 150.5v254q0 158 84 246t233 88h70v-166h-43q-72 0 -110.5 -50t-38.5 -139v-253q0 -102 -43.5 -172t-118.5 -93v-4q76 -23 119 -92.5t43 -171.5v-254q0 -88 38.5 -138t110.5 -50h43v-166h-70q-150 0 -233.5 88t-83.5 246v254q0 94 -43 150 t-119 63z" />
<glyph unicode="|" horiz-adv-x="618" d="M215 -137v1749h188v-1749h-188z" />
<glyph unicode="}" horiz-adv-x="692" d="M51 29h43q72 0 111 50t39 138v254q0 102 43 172t119 92v4q-76 23 -119 92.5t-43 172.5v253q0 88 -39 138.5t-111 50.5h-43v166h70q150 0 233.5 -88t83.5 -246v-254q0 -94 43 -150.5t119 -62.5v-147q-76 -6 -119 -62.5t-43 -150.5v-254q0 -158 -84 -246t-233 -88h-70v166z " />
<glyph unicode="~" horiz-adv-x="1099" d="M123 614v156q39 39 107.5 65.5t138.5 26.5q78 0 188.5 -45t181.5 -45q135 0 238 96v-153q-88 -94 -246 -94q-80 0 -190.5 45t-180.5 45q-131 0 -237 -97z" />
<glyph unicode="&#xa1;" horiz-adv-x="614" d="M188 932q0 53 33 85t86 32t86 -33t33 -84t-33 -83t-86 -32t-86 32t-33 83zM211 -451l12 1080h168l12 -1080h-192z" />
<glyph unicode="&#xa2;" horiz-adv-x="1150" d="M152 735q0 219 131 365q131 150 346 168v270h90v-266q145 -6 282 -80v-180q-135 80 -282 90v-733q143 2 289 90v-178q-139 -76 -289 -82v-267h-90v269q-215 23 -346 168t-131 366zM346 735.5q0 -141.5 77 -240.5t206 -122v723q-127 -23 -205 -121t-78 -239.5z" />
<glyph unicode="&#xa3;" horiz-adv-x="1253" d="M133 662v155h178v234q0 213 120 330.5t335 117.5q172 0 295 -59v-178q-127 66 -277 65q-135 0 -209.5 -75.5t-74.5 -215.5v-219h440v-155h-440v-232q0 -164 -74 -260h664v-170h-953q174 205 174 428v234h-178z" />
<glyph unicode="&#xa4;" horiz-adv-x="1566" d="M172 258l223 225q-86 123 -86 267q0 147 88 266l-225 225l119 121l227 -227q119 84 264.5 84t264.5 -84l229 227l119 -121l-226 -225q88 -121 88 -266.5t-88 -266.5l226 -225l-119 -121l-232 228q-119 -84 -262 -84t-264 84l-227 -228zM483 750q0 -127 88 -215 q90 -86 211 -86q123 0 213 86q88 88 88 215q0 125 -88 213q-86 88 -209 88q-127 0 -215 -88q-88 -86 -88 -213z" />
<glyph unicode="&#xa5;" horiz-adv-x="1415" d="M96 1475h219l392 -701l391 701h219l-295 -512h242v-136h-320l-104 -180h362v-135h-397v-512h-197v512h-397v135h360l-102 180h-319v136h241z" />
<glyph unicode="&#xa6;" horiz-adv-x="618" d="M215 -137v698h188v-698h-188zM215 913v699h188v-699h-188z" />
<glyph unicode="&#xa7;" horiz-adv-x="1185" d="M117 104q145 -80 301 -100q106 27 106 154q0 92 -121 329l-170 338q-100 199 -100 308q0 182 134 287.5t362 105.5q235 -1 438 -101l2 -168q-154 78 -301 101q-106 -27 -106 -154q0 -92 120 -330l170 -337q100 -199 101 -314q0 -178 -135.5 -282.5t-360.5 -104.5 q-236 0 -438 101zM307 1135q0 -100 84 -258l182 -347q129 -246 129 -356q0 -115 -79 -176q123 14 189.5 73.5t66.5 155.5q0 100 -84 258l-170 326q-139 268 -140 373q0 119 76 180q-119 -14 -186.5 -74.5t-67.5 -154.5z" />
<glyph unicode="&#xa8;" horiz-adv-x="811" d="M92 1321q0 53 33 85t86 32t86 -33t33 -84t-33 -83t-86 -32t-86 32t-33 83zM483 1321q0 51 33 84t84 33q53 0 86 -32t33 -85q0 -51 -33 -83t-86 -32q-51 0 -84 32t-33 83z" />
<glyph unicode="&#xa9;" horiz-adv-x="1695" d="M102 737.5q0 319.5 215 540.5q220 221 527 221q311 0 530 -221q219 -223 219 -540.5t-219 -540.5q-219 -221 -530 -222q-307 0 -527 222q-215 221 -215 540.5zM233 737q0 -264 177 -450q178 -183 434 -183q260 0 438 183q180 182 180 450.5t-180 448.5q-178 184 -438 184 q-256 0 -434 -184q-176 -182 -177 -449zM428 737q0 190 119 312q119 125 301 125q137 0 264 -72v-148q-119 78 -252 78q-123 0 -203 -84q-78 -84 -77.5 -211t77.5 -211q80 -84 201 -84q137 0 258 80v-149q-155 -72 -268 -72q-180 0 -301 123q-119 125 -119 313z" />
<glyph unicode="&#xaa;" horiz-adv-x="774" d="M37 889q0 127 104.5 199.5t280.5 72.5q66 0 127 -12q0 117 -45 164t-152 47q-156 0 -262 -70v148q117 61 283 61q336 0 336 -309v-500h-152v64q0 57 10 92v2q-16 -33 -43 -66q-23 -33 -92 -75q-70 -41 -145 -41q-111 0 -180.5 60t-69.5 163zM193 907q0 -49 34.5 -80.5 t91.5 -31.5q94 0 158 73q68 80 70 176q-57 10 -115 11q-111 0 -175 -40t-64 -108z" />
<glyph unicode="&#xab;" horiz-adv-x="1157" d="M113 512l323 512h211l-332 -512l332 -512h-211zM530 512l324 512h211l-332 -512l332 -512h-211z" />
<glyph unicode="&#xac;" horiz-adv-x="1345" d="M188 659v156h969v-481h-160v325h-809z" />
<glyph unicode="&#xad;" horiz-adv-x="794" d="M92 500v157h610v-157h-610z" />
<glyph unicode="&#xae;" horiz-adv-x="1695" d="M102 737.5q0 319.5 215 540.5q220 221 527 221q311 0 530 -221q219 -223 219 -540.5t-219 -540.5q-219 -221 -530 -222q-307 0 -527 222q-215 221 -215 540.5zM233 737q0 -264 177 -450q178 -183 434 -183q260 0 438 183q180 182 180 450.5t-180 448.5q-178 184 -438 184 q-256 0 -434 -184q-176 -182 -177 -449zM567 324v831h277q129 0 211 -72.5t82 -187.5q0 -82 -45 -142.5t-125 -86.5l178 -342h-141l-160 321h-146v-321h-131zM698 754h127q174 0 174 141t-174 141h-127v-282z" />
<glyph unicode="&#xaf;" horiz-adv-x="800" d="M92 1247v150h617v-150h-617z" />
<glyph unicode="&#xb0;" horiz-adv-x="854" d="M86 1167.5q0 139.5 98 235.5q98 98 241.5 98t242.5 -98q100 -94 100 -236q0 -139 -100 -237q-100 -96 -241.5 -96t-242.5 96q-98 98 -98 237.5zM227 1167q0 -86 58.5 -145t140.5 -59q84 0 142.5 59t58.5 145t-58.5 145.5t-142.5 59.5q-82 0 -140.5 -59.5t-58.5 -145.5z " />
<glyph unicode="&#xb1;" horiz-adv-x="1226" d="M182 858v158h350v375h160v-375h352v-158h-352v-373h-160v373h-350zM207 113v155h813v-155h-813z" />
<glyph unicode="&#xb2;" horiz-adv-x="667" d="M14 690q211 217 310 338q92 115 92 193q0 68 -42 107.5t-116 39.5q-109 0 -203 -63v135q94 61 219 61q135 0 212 -70.5t77 -193.5q0 -66 -47 -149.5t-94 -137.5q-45 -53 -123 -129h307v-131h-592z" />
<glyph unicode="&#xb3;" horiz-adv-x="653" d="M55 713v127q104 -45 217 -45q74 0 117 31.5t43 80.5q0 61 -55 97t-158 36h-43v111h51q86 0 141.5 34t55.5 85q0 100 -160 100q-98 0 -196 -45v127q104 47 211 47q133 0 211.5 -60.5t78.5 -158.5q0 -125 -157 -182q168 -51 168 -201q0 -102 -83 -166.5t-218 -64.5 q-125 0 -224 47z" />
<glyph unicode="&#xb4;" horiz-adv-x="624" d="M92 1153l193 346h247l-266 -346h-174z" />
<glyph unicode="&#xb5;" horiz-adv-x="1259" d="M162 -410v1434h190v-604q0 -125 40 -196.5t155 -71.5q145 0 239 104q94 106 95 264v504h190v-1024h-178l-4 143q0 23 6 66l2 12h-4q-35 -86 -139 -168q-102 -78 -242 -78q-104 0 -180 35q8 -80 8 -170v-250h-178z" />
<glyph unicode="&#xb6;" horiz-adv-x="1177" d="M72 981q0 223 147 358q150 135 393 136h84v-986h-84q-244 0 -393 136q-147 135 -147 356zM485 -279q78 -23 146 -22q76 0 119 50t43 134v1592h190v-1592q0 -172 -83 -265t-234 -93q-102 0 -181 26v170z" />
<glyph unicode="&#xb7;" horiz-adv-x="421" d="M92 508q0 53 33 85t86 32t86 -33t33 -84t-33 -83t-86 -32t-86 32t-33 83z" />
<glyph unicode="&#xb8;" horiz-adv-x="552" d="M92 -338q37 -12 92 -12q51 0 87 21.5t36 60.5q0 98 -190 80l88 208h112l-55 -137q80 -2 139.5 -49t59.5 -123q0 -90 -67.5 -138t-180.5 -48q-72 0 -121 12v125z" />
<glyph unicode="&#xb9;" horiz-adv-x="606" d="M55 690v129h187v527h-176v129h325v-656h180v-129h-516z" />
<glyph unicode="&#xba;" horiz-adv-x="915" d="M66 1081q0 176 110 297q115 121 283 121q164 0 278 -121q113 -119 113 -297q0 -176 -113 -295q-111 -121 -278.5 -120.5t-280 119t-112.5 296.5zM219 1081q0 -115 68 -198q70 -80 172 -80q98 0 170 80q70 78 69.5 198.5t-69.5 198.5q-70 82 -170 82q-98 0 -170 -80 q-70 -78 -70 -201z" />
<glyph unicode="&#xbb;" horiz-adv-x="1157" d="M92 0l332 512l-332 512h211l324 -512l-324 -512h-211zM510 0l332 512l-332 512h211l323 -512l-323 -512h-211z" />
<glyph unicode="&#xbc;" d="M129 690v129h186v527h-176v129h326v-656h180v-129h-516zM262 0l1051 1475h139l-1051 -1475h-139zM907 176l303 633h150l-254 -514h197v205h127v-205h116v-121h-116v-174h-134v176h-389z" />
<glyph unicode="&#xbd;" horiz-adv-x="1757" d="M129 690v129h186v527h-176v129h326v-656h180v-129h-516zM262 0l1051 1475h139l-1051 -1475h-139zM1036 0q211 217 310 338q92 113 92 192q0 68 -42 108t-116 40q-109 -1 -203 -64v136q94 61 219 61q135 0 212 -70.5t77 -193.5q0 -66 -47 -150t-94 -137q-47 -51 -123 -129 h307v-131h-592z" />
<glyph unicode="&#xbe;" horiz-adv-x="1687" d="M129 713v127q104 -45 217 -45q74 0 117 31.5t43 80.5q0 61 -55.5 97t-157.5 36h-43v111h51q86 0 141.5 34t55.5 85q0 100 -160 100q-98 0 -197 -45v127q104 47 211 47q133 0 212 -60.5t79 -158.5q0 -125 -158 -182q168 -51 168 -201q0 -102 -83 -166.5t-218 -64.5 q-125 0 -223 47zM274 0l1051 1475h139l-1050 -1475h-140zM920 176l303 633h149l-254 -514h197v205h127v-205h117v-121h-117v-174h-133v176h-389z" />
<glyph unicode="&#xbf;" horiz-adv-x="925" d="M133 -109q0 182 129 312q16 16 62.5 59t68 66.5t51 62.5t43 79t13.5 83v76h172v-94q0 -172 -123 -291q-6 -6 -58.5 -54.5t-66.5 -66t-46 -57t-43 -76.5t-11 -80q0 -98 63.5 -156.5t173.5 -58.5q156 0 293 88v-178q-133 -82 -303 -82q-184 0 -303 102q-115 102 -115 266z M467 932q0 53 32.5 85t86 32t86.5 -33t33 -84t-33 -83t-86.5 -32t-86 32t-32.5 83z" />
<glyph unicode="&#xc0;" horiz-adv-x="1363" d="M0 0l680 1499h4l680 -1499h-209l-145 328h-658l-143 -328h-209zM317 2011h246l219 -407h-164zM424 489h514q-170 381 -256 611q-98 -255 -258 -611z" />
<glyph unicode="&#xc1;" horiz-adv-x="1363" d="M0 0l680 1499h4l680 -1499h-209l-145 328h-658l-143 -328h-209zM424 489h514q-170 381 -256 611q-98 -255 -258 -611zM580 1604l219 407h245l-301 -407h-163z" />
<glyph unicode="&#xc2;" horiz-adv-x="1363" d="M0 0l680 1499h4l680 -1499h-209l-145 328h-658l-143 -328h-209zM334 1606l268 403h156l268 -403h-178l-168 260l-168 -260h-178zM424 489h514q-170 381 -256 611q-98 -255 -258 -611z" />
<glyph unicode="&#xc3;" horiz-adv-x="1363" d="M0 0l680 1499h4l680 -1499h-209l-145 328h-658l-143 -328h-209zM352 1661v162q57 80 178 80q55 0 156 -41q98 -39 143 -39q104 0 175 88v-162q-25 -33 -73 -56.5t-104 -23.5q-59 0 -157 39q-104 41 -144 41q-104 0 -174 -88zM424 489h514q-170 381 -256 611 q-98 -255 -258 -611z" />
<glyph unicode="&#xc4;" horiz-adv-x="1363" d="M0 0l680 1499h4l680 -1499h-209l-145 328h-658l-143 -328h-209zM367 1786q0 51 32.5 83t86 32t86 -32t32.5 -83t-32.5 -84t-86 -33t-86 32t-32.5 85zM424 489h514q-170 381 -256 611q-98 -255 -258 -611zM758 1786q0 51 32.5 83t86 32t86 -32t32.5 -83t-32.5 -84t-86 -33 t-86 32t-32.5 85z" />
<glyph unicode="&#xc5;" horiz-adv-x="1363" d="M0 0l680 1499h4l680 -1499h-209l-145 328h-658l-143 -328h-209zM424 489h514q-170 381 -256 611q-98 -255 -258 -611zM465 1786q0 86 61.5 141t155.5 55q92 0 153.5 -55t61.5 -141t-61.5 -141.5t-153.5 -55.5q-94 0 -155.5 55.5t-61.5 141.5zM590 1786q0 -39 24.5 -64.5 t67.5 -25.5t67.5 25.5t24.5 64.5q0 37 -24.5 62.5t-67.5 25.5t-67.5 -25.5t-24.5 -62.5z" />
<glyph unicode="&#xc6;" horiz-adv-x="1816" d="M8 0l750 1475h882v-166h-761l159 -480h580v-165h-524l166 -498h505v-166h-641l-108 328h-637l-166 -328h-205zM451 485h516l-205 643z" />
<glyph unicode="&#xc7;" horiz-adv-x="1368" d="M82 737q0 326 219 545q219 217 557 217q258 0 438 -106v-187q-219 111 -438 111q-252 0 -416 -164q-162 -162 -161.5 -416t161.5 -415q164 -164 416 -164q236 0 449 108v-186q-29 -18 -84 -41q-162 -61 -346 -64l-37 -92q80 -2 139 -49t59 -123q0 -90 -67.5 -138 t-179.5 -48q-72 0 -121 12v125q37 -12 92 -12q51 0 87 21.5t36 60.5q0 98 -191 80l70 168q-299 31 -492 241q-190 213 -190 516z" />
<glyph unicode="&#xc8;" horiz-adv-x="1212" d="M195 0v1475h905v-166h-709v-480h598v-165h-598v-498h739v-166h-935zM289 2011h246l219 -407h-164z" />
<glyph unicode="&#xc9;" horiz-adv-x="1212" d="M195 0v1475h905v-166h-709v-480h598v-165h-598v-498h739v-166h-935zM522 1604l219 407h246l-301 -407h-164z" />
<glyph unicode="&#xca;" horiz-adv-x="1212" d="M195 0v1475h905v-166h-709v-480h598v-165h-598v-498h739v-166h-935zM297 1606l268 403h156l268 -403h-178l-168 260l-168 -260h-178z" />
<glyph unicode="&#xcb;" horiz-adv-x="1212" d="M195 0v1475h905v-166h-709v-480h598v-165h-598v-498h739v-166h-935zM332 1786q0 51 32.5 83t86 32t86 -32t32.5 -83t-32.5 -84t-86 -33t-86 32t-32.5 85zM723 1786q0 51 32.5 83t86 32t86.5 -32t33 -83t-33 -84t-86.5 -33t-86 32t-32.5 85z" />
<glyph unicode="&#xcc;" horiz-adv-x="585" d="M-76 2011h246l219 -407h-164zM195 0v1475h196v-1475h-196z" />
<glyph unicode="&#xcd;" horiz-adv-x="585" d="M195 0v1475h196v-1475h-196zM195 1604l219 407h245l-301 -407h-163z" />
<glyph unicode="&#xce;" horiz-adv-x="585" d="M-53 1606l268 403h156l268 -403h-178l-168 260l-168 -260h-178zM195 0v1475h196v-1475h-196z" />
<glyph unicode="&#xcf;" horiz-adv-x="585" d="M-20 1786q0 51 32.5 83t86 32t86 -32t32.5 -83t-32.5 -84t-86 -33t-86 32t-32.5 85zM195 0v1475h196v-1475h-196zM371 1786q0 51 32.5 83t86 32t86 -32t32.5 -83t-32.5 -84t-86 -33t-86 32t-32.5 85z" />
<glyph unicode="&#xd0;" horiz-adv-x="1529" d="M55 670v135h181v670h423q352 0 572 -203q217 -203 217 -534.5t-215 -534.5q-213 -203 -565 -203h-432v670h-181zM432 166h234q258 0 419 158q162 156 162 413.5t-162 413.5q-164 158 -428 158h-225v-504h402v-135h-402v-504z" />
<glyph unicode="&#xd1;" horiz-adv-x="1550" d="M195 0v1499h2l915 -993l47 -51v1020h197v-1500h-2l-916 994l-47 51v-1020h-196zM449 1661v162q59 80 178 80q55 0 155 -41q98 -39 144 -39q104 0 174 88v-162q-25 -33 -73 -56.5t-103 -23.5q-59 0 -158 39q-104 41 -143 41q-104 0 -174 -88z" />
<glyph unicode="&#xd2;" d="M82 737q0 322 217 541q217 221 539 221q317 0 536 -219t219 -543q0 -326 -217 -542q-219 -219 -538.5 -219.5t-538.5 219.5q-217 216 -217 542zM281 737q0 -248 157 -415q160 -164 399.5 -164t397.5 164q158 168 158 415q0 250 -158 414q-158 166 -397.5 166t-399.5 -166 q-158 -164 -157 -414zM504 2011h246l219 -407h-164z" />
<glyph unicode="&#xd3;" d="M82 737q0 322 217 541q217 221 539 221q317 0 536 -219t219 -543q0 -326 -217 -542q-219 -219 -538.5 -219.5t-538.5 219.5q-217 216 -217 542zM281 737q0 -248 157 -415q160 -164 399.5 -164t397.5 164q158 168 158 415q0 250 -158 414q-158 166 -397.5 166t-399.5 -166 q-158 -164 -157 -414zM694 1604l219 407h246l-301 -407h-164z" />
<glyph unicode="&#xd4;" d="M82 737q0 322 217 541q217 221 539 221q317 0 536 -219t219 -543q0 -326 -217 -542q-219 -219 -538.5 -219.5t-538.5 219.5q-217 216 -217 542zM281 737q0 -248 157 -415q160 -164 399.5 -164t397.5 164q158 168 158 415q0 250 -158 414q-158 166 -397.5 166t-399.5 -166 q-158 -164 -157 -414zM492 1606l268 403h155l269 -403h-178l-168 260l-168 -260h-178z" />
<glyph unicode="&#xd5;" d="M82 737q0 322 217 541q217 221 539 221q317 0 536 -219t219 -543q0 -326 -217 -542q-219 -219 -538.5 -219.5t-538.5 219.5q-217 216 -217 542zM281 737q0 -248 157 -415q160 -164 399.5 -164t397.5 164q158 168 158 415q0 250 -158 414q-158 166 -397.5 166t-399.5 -166 q-158 -164 -157 -414zM512 1661v162q57 80 178 80q55 0 156 -41q98 -39 143 -39q104 0 174 88v-162q-25 -33 -73 -56.5t-103 -23.5q-59 0 -158 39q-104 41 -143 41q-104 0 -174 -88z" />
<glyph unicode="&#xd6;" d="M82 737q0 322 217 541q217 221 539 221q317 0 536 -219t219 -543q0 -326 -217 -542q-219 -219 -538.5 -219.5t-538.5 219.5q-217 216 -217 542zM281 737q0 -248 157 -415q160 -164 399.5 -164t397.5 164q158 168 158 415q0 250 -158 414q-158 166 -397.5 166t-399.5 -166 q-158 -164 -157 -414zM522 1786q0 51 33 83t86 32t86 -32t33 -83t-33 -84t-86 -33t-86 32t-33 85zM913 1786q0 51 33 83t86 32t86 -32t33 -83t-33 -84t-86 -33t-86 32t-33 85z" />
<glyph unicode="&#xd7;" horiz-adv-x="1236" d="M188 422l320 317l-320 318l113 112l317 -319l318 319l113 -112l-320 -318l320 -317l-113 -113l-318 320l-317 -320z" />
<glyph unicode="&#xd8;" d="M82 737q0 322 217 541q217 221 539 221q193 0 362 -90l141 209h177l-197 -291q129 -106 200.5 -260t71.5 -330q0 -326 -217 -542q-219 -219 -538 -220q-197 0 -367 91l-139 -209h-174l194 288q-129 104 -199.5 259t-70.5 333zM281 737q0 -266 178 -434l639 952 q-123 61 -260 62q-240 0 -400 -166q-157 -164 -157 -414zM575 219q123 -61 263 -61q240 0 397 164q158 167 158 415q0 262 -176 432z" />
<glyph unicode="&#xd9;" horiz-adv-x="1464" d="M164 516v959h196v-945q0 -174 98.5 -273t272.5 -99t273.5 99t99.5 273v945h196v-959q0 -254 -151.5 -397.5t-417.5 -143.5t-416.5 143.5t-150.5 397.5zM369 2011h245l220 -407h-164z" />
<glyph unicode="&#xda;" horiz-adv-x="1464" d="M164 516v959h196v-945q0 -174 98.5 -273t272.5 -99t273.5 99t99.5 273v945h196v-959q0 -254 -151.5 -397.5t-417.5 -143.5t-416.5 143.5t-150.5 397.5zM621 1604l219 407h245l-301 -407h-163z" />
<glyph unicode="&#xdb;" horiz-adv-x="1464" d="M164 516v959h196v-945q0 -174 98.5 -273t272.5 -99t273.5 99t99.5 273v945h196v-959q0 -254 -151.5 -397.5t-417.5 -143.5t-416.5 143.5t-150.5 397.5zM385 1606l268 403h156l268 -403h-178l-168 260l-168 -260h-178z" />
<glyph unicode="&#xdc;" horiz-adv-x="1464" d="M164 516v959h196v-945q0 -174 98.5 -273t272.5 -99t273.5 99t99.5 273v945h196v-959q0 -254 -151.5 -397.5t-417.5 -143.5t-416.5 143.5t-150.5 397.5zM418 1786q0 51 32.5 83t86 32t86 -32t32.5 -83t-32.5 -84t-86 -33t-86 32t-32.5 85zM809 1786q0 51 32.5 83t86 32 t86.5 -32t33 -83t-33 -84t-86.5 -33t-86 32t-32.5 85z" />
<glyph unicode="&#xdd;" horiz-adv-x="1241" d="M-10 1475h219l412 -701l411 701h219l-532 -889v-586h-197v586zM522 1604l219 407h246l-301 -407h-164z" />
<glyph unicode="&#xde;" horiz-adv-x="1138" d="M195 0v1475h196v-287h164q240 0 376 -120t136 -331t-136 -330.5t-376 -119.5h-164v-287h-196zM391 453h174q141 0 221 75.5t80 208.5t-83.5 209t-233.5 76h-158v-569z" />
<glyph unicode="&#xdf;" horiz-adv-x="1277" d="M186 0v1047q0 59 14.5 117.5t50.5 120t89 108.5t139 76.5t195 29.5q172 0 284 -90q111 -90 111 -233q0 -86 -51 -163t-123 -124q-174 -113 -174 -176q0 -49 31 -70q37 -25 133 -61q31 -14 35 -15q178 -72 247 -131q70 -57 70 -182q0 -133 -101.5 -206t-271.5 -73 q-193 0 -323 68v174q172 -84 317 -84q86 0 142.5 34t56.5 93q0 43 -31 70q-29 31 -65 47q-37 20 -127 53q-135 51 -207 102q-80 59 -80 177q0 63 49 125.5t119 109.5q170 113 170 219q0 78 -58.5 124t-154.5 46q-135 0 -216 -84t-81 -223v-1026h-189z" />
<glyph unicode="&#xe0;" horiz-adv-x="1095" d="M90 276q0 193 176 277t492 39v51q0 240 -269 240q-190 0 -333 -86v176q139 76 360 76q430 0 430 -396v-653h-176l-2 121l6 82h-4q-20 -47 -94 -125q-102 -102 -262 -103q-145 0 -234.5 82t-89.5 219zM190 1499h248l193 -346h-172zM279 283q0 -68 45.5 -111t121.5 -43 q127 0 217.5 102.5t90.5 227.5q-231 37 -353 -11.5t-122 -164.5z" />
<glyph unicode="&#xe1;" horiz-adv-x="1095" d="M90 276q0 193 176 277t492 39v51q0 240 -269 240q-190 0 -333 -86v176q139 76 360 76q430 0 430 -396v-653h-176l-2 121l6 82h-4q-20 -47 -94 -125q-102 -102 -262 -103q-145 0 -234.5 82t-89.5 219zM279 283q0 -68 45.5 -111t121.5 -43q127 0 217.5 102.5t90.5 227.5 q-231 37 -353 -11.5t-122 -164.5zM418 1153l192 346h248l-266 -346h-174z" />
<glyph unicode="&#xe2;" horiz-adv-x="1095" d="M90 276q0 193 176 277t492 39v51q0 240 -269 240q-190 0 -333 -86v176q139 76 360 76q430 0 430 -396v-653h-176l-2 121l6 82h-4q-20 -47 -94 -125q-102 -102 -262 -103q-145 0 -234.5 82t-89.5 219zM201 1153l229 346h160l227 -346h-174l-133 211l-135 -211h-174z M279 283q0 -68 45.5 -111t121.5 -43q127 0 217.5 102.5t90.5 227.5q-231 37 -353 -11.5t-122 -164.5z" />
<glyph unicode="&#xe3;" horiz-adv-x="1095" d="M90 276q0 193 176 277t492 39v51q0 240 -269 240q-190 0 -333 -86v176q139 76 360 76q430 0 430 -396v-653h-176l-2 121l6 82h-4q-20 -47 -94 -125q-102 -102 -262 -103q-145 0 -234.5 82t-89.5 219zM195 1202v160q59 78 178 78q59 0 155.5 -39t141.5 -39q104 0 174 86 v-158q-25 -33 -74 -56.5t-104 -23.5q-59 0 -156 39q-100 41 -141 41q-104 0 -174 -88zM279 283q0 -68 45.5 -111t121.5 -43q127 0 217.5 102.5t90.5 227.5q-231 37 -353 -11.5t-122 -164.5z" />
<glyph unicode="&#xe4;" horiz-adv-x="1095" d="M90 276q0 193 176 277t492 39v51q0 240 -269 240q-190 0 -333 -86v176q139 76 360 76q430 0 430 -396v-653h-176l-2 121l6 82h-4q-20 -47 -94 -125q-102 -102 -262 -103q-145 0 -234.5 82t-89.5 219zM193 1321q0 53 32.5 85t86 32t86 -33t32.5 -84t-32.5 -83t-86 -32 t-86 32t-32.5 83zM279 283q0 -68 45.5 -111t121.5 -43q127 0 217.5 102.5t90.5 227.5q-231 37 -353 -11.5t-122 -164.5zM591.5 1276q-30.5 78 22.5 129q39 31 86.5 33t86 -32t32.5 -85q0 -51 -32.5 -83t-86.5 -32q-78 -8 -108.5 70z" />
<glyph unicode="&#xe5;" horiz-adv-x="1095" d="M90 276q0 193 176 277t492 39v51q0 240 -269 240q-190 0 -333 -86v176q139 76 360 76q430 0 430 -396v-653h-176l-2 121l6 82h-4q-20 -47 -94 -125q-102 -102 -262 -103q-145 0 -234.5 82t-89.5 219zM279 283q0 -68 45.5 -111t121.5 -43q127 0 217.5 102.5t90.5 227.5 q-231 37 -353 -11.5t-122 -164.5zM299 1321q0 86 61.5 140.5t155.5 54.5t154.5 -54.5t60.5 -140.5t-60.5 -140.5t-154.5 -54.5t-155.5 54.5t-61.5 140.5zM424 1321q0 -37 24.5 -61.5t67.5 -24.5t67.5 24.5t24.5 61.5q6 53 -43 75.5t-98 0t-43 -75.5z" />
<glyph unicode="&#xe6;" horiz-adv-x="1736" d="M90 276q0 184 167 269.5t468 50.5q8 70 33 129q-43 158 -269 158q-190 0 -333 -86v176q139 76 360 76q252 0 356 -140q133 139 330 140q207 0 324 -140q119 -137 119 -338q0 -18 -2.5 -58t-2.5 -42h-725v-2q4 -152 95.5 -240t244.5 -88q205 0 351 97v-175 q-145 -88 -363 -88q-293 0 -436 222q-25 -41 -72 -88q-37 -39 -131 -89q-88 -45 -190 -45q-145 0 -234.5 82t-89.5 219zM279 283q0 -68 45.5 -111t121.5 -43q96 0 177.5 61.5t117.5 155.5q-16 55 -18 119q-217 29 -330.5 -21.5t-113.5 -160.5zM918 606h538q2 123 -66.5 203 t-189.5 80q-119 0 -194.5 -80t-87.5 -203z" />
<glyph unicode="&#xe7;" horiz-adv-x="1042" d="M100 512q0 236 150 385q152 152 385 152q164 0 315 -80v-181q-145 90 -305 91q-154 0 -252 -103q-98 -100 -98 -264q0 -162 96 -264q98 -103 254 -103q162 0 311 91v-179q-145 -80 -307 -82l-37 -92q80 -2 139.5 -49t59.5 -123q0 -90 -67.5 -138t-180.5 -48 q-72 0 -121 12v125q37 -12 93 -12q51 0 86.5 21.5t35.5 60.5q0 98 -190 80l72 172q-199 31 -318 174q-121 145 -121 354z" />
<glyph unicode="&#xe8;" horiz-adv-x="1159" d="M100 512q0 233 144 383q145 154 358 154q217 0 340 -140q123 -139 123 -338q0 -18 -2 -58t-2 -42h-762v-2q4 -152 100.5 -240t255.5 -88q219 0 371 97v-175q-156 -88 -383 -88q-244 0 -393.5 149.5t-149.5 387.5zM301 606h576q2 121 -74 202t-203 81q-121 0 -204 -81 t-95 -202zM305 1499h248l192 -346h-172z" />
<glyph unicode="&#xe9;" horiz-adv-x="1159" d="M100 512q0 233 144 383q145 154 358 154q217 0 340 -140q123 -139 123 -338q0 -18 -2 -58t-2 -42h-762v-2q4 -152 100.5 -240t255.5 -88q219 0 371 97v-175q-156 -88 -383 -88q-244 0 -393.5 149.5t-149.5 387.5zM301 606h576q2 121 -74 202t-203 81q-121 0 -204 -81 t-95 -202zM500 1153l192 346h248l-266 -346h-174z" />
<glyph unicode="&#xea;" horiz-adv-x="1159" d="M100 512q0 233 144 383q145 154 358 154q217 0 340 -140q123 -139 123 -338q0 -18 -2 -58t-2 -42h-762v-2q4 -152 100.5 -240t255.5 -88q219 0 371 97v-175q-156 -88 -383 -88q-244 0 -393.5 149.5t-149.5 387.5zM301 606h576q2 121 -74 202t-203 81q-121 0 -204 -81 t-95 -202zM301 1153l229 346h160l228 -346h-175l-133 211l-135 -211h-174z" />
<glyph unicode="&#xeb;" horiz-adv-x="1159" d="M100 512q0 233 144 383q145 154 358 154q217 0 340 -140q123 -139 123 -338q0 -18 -2 -58t-2 -42h-762v-2q4 -152 100.5 -240t255.5 -88q219 0 371 97v-175q-156 -88 -383 -88q-244 0 -393.5 149.5t-149.5 387.5zM297 1321q0 53 32.5 85t86 32t86.5 -33t33 -84t-33 -83 t-86.5 -32t-86 32t-32.5 83zM301 606h576q2 121 -74 202t-203 81q-121 0 -204 -81t-95 -202zM688 1321q0 51 33 84t84 33q53 0 86 -32t33 -85q0 -51 -33 -83t-86 -32q-51 0 -84 32t-33 83z" />
<glyph unicode="&#xec;" horiz-adv-x="563" d="M-63 1499h247l193 -346h-172zM186 0v1024h191v-1024h-191z" />
<glyph unicode="&#xed;" horiz-adv-x="563" d="M186 0v1024h191v-1024h-191zM186 1153l193 346h248l-267 -346h-174z" />
<glyph unicode="&#xee;" horiz-adv-x="563" d="M-27 1153l230 346h159l228 -346h-174l-133 211l-136 -211h-174zM186 0v1024h191v-1024h-191z" />
<glyph unicode="&#xef;" horiz-adv-x="563" d="M-33 1321q0 53 33 85t86 32t86 -33t33 -84t-33 -83t-86 -32t-86 32t-33 83zM186 0v1024h191v-1024h-191zM366.5 1276q-30.5 78 22.5 129q39 31 86 33t86 -32t33 -85q0 -51 -33 -83t-86 -32q-78 -8 -108.5 70z" />
<glyph unicode="&#xf0;" horiz-adv-x="1206" d="M100 512q0 213 137.5 375t348.5 162q98 0 157 -48q-80 121 -202 228l-217 -129l-68 102l195 117q-76 72 -175 156h246q70 -62 76 -68l227 131l68 -100l-203 -119q172 -162 279 -340q137 -225 137 -454.5t-139 -391.5q-139 -158 -364.5 -158t-362.5 156q-139 158 -140 381 zM285 512q0 -160 86 -266q86 -105 231 -105q147 0 233.5 108.5t86.5 274.5q0 152 -88 254q-88 106 -232 107q-145 0 -231 -106.5t-86 -266.5z" />
<glyph unicode="&#xf1;" horiz-adv-x="1261" d="M186 0v1024h179l4 -143q0 -63 -9 -78h5q37 90 141 166q104 80 250 80q350 0 350 -406v-643h-191v604q0 125 -39.5 196.5t-154.5 71.5q-150 0 -248 -106q-96 -106 -96 -262v-504h-191zM358 1202v160q60 78 179 78q59 0 155 -39t142 -39q104 0 174 86v-158 q-25 -33 -74 -56.5t-105 -23.5q-59 0 -155 39q-100 41 -142 41q-104 0 -174 -88z" />
<glyph unicode="&#xf2;" horiz-adv-x="1255" d="M100 512q0 233 150 383q152 154 377 154q229 0 379 -154q150 -150 149.5 -383t-149.5 -385q-152 -152 -379 -152q-225 0 -377 152q-150 152 -150 385zM285 512q0 -160 96 -266q99 -105 246 -105q152 0 245 105q98 104 98.5 266t-98.5 266q-94 104 -245 105 q-147 0 -246 -105q-96 -106 -96 -266zM303 1499h248l192 -346h-172z" />
<glyph unicode="&#xf3;" horiz-adv-x="1255" d="M100 512q0 233 150 383q152 154 377 154q229 0 379 -154q150 -150 149.5 -383t-149.5 -385q-152 -152 -379 -152q-225 0 -377 152q-150 152 -150 385zM285 512q0 -160 96 -266q99 -105 246 -105q152 0 245 105q98 104 98.5 266t-98.5 266q-94 104 -245 105 q-147 0 -246 -105q-96 -106 -96 -266zM532 1153l193 346h248l-266 -346h-175z" />
<glyph unicode="&#xf4;" horiz-adv-x="1255" d="M100 512q0 233 150 383q152 154 377 154q229 0 379 -154q150 -150 149.5 -383t-149.5 -385q-152 -152 -379 -152q-225 0 -377 152q-150 152 -150 385zM285 512q0 -160 96 -266q99 -105 246 -105q152 0 245 105q98 104 98.5 266t-98.5 266q-94 104 -245 105 q-147 0 -246 -105q-96 -106 -96 -266zM317 1153l230 346h160l227 -346h-174l-133 211l-135 -211h-175z" />
<glyph unicode="&#xf5;" horiz-adv-x="1255" d="M100 512q0 233 150 383q152 154 377 154q229 0 379 -154q150 -150 149.5 -383t-149.5 -385q-152 -152 -379 -152q-225 0 -377 152q-150 152 -150 385zM285 512q0 -160 96 -266q99 -105 246 -105q152 0 245 105q98 104 98.5 266t-98.5 266q-94 104 -245 105 q-147 0 -246 -105q-96 -106 -96 -266zM303 1202v160q59 78 178 78q59 0 155.5 -39t141.5 -39q102 0 174 86v-158q-25 -33 -74 -56.5t-104 -23.5q-59 0 -156 39q-100 41 -141 41q-104 0 -174 -88z" />
<glyph unicode="&#xf6;" horiz-adv-x="1255" d="M100 512q0 233 150 383q152 154 377 154q229 0 379 -154q150 -150 149.5 -383t-149.5 -385q-152 -152 -379 -152q-225 0 -377 152q-150 152 -150 385zM285 512q0 -160 96 -266q99 -105 246 -105q152 0 245 105q98 104 98.5 266t-98.5 266q-94 104 -245 105 q-147 0 -246 -105q-96 -106 -96 -266zM313 1321q0 53 33 85t86 32t86 -33t33 -84t-33 -83t-86 -32t-86 32t-33 83zM705 1321q0 51 32.5 84t83.5 33q53 0 86 -32t33 -85q0 -51 -33 -83t-86 -32q-51 0 -83.5 32t-32.5 83z" />
<glyph unicode="&#xf7;" horiz-adv-x="1300" d="M188 659v156h924v-156h-924zM532 328q0 51 31 82q33 33 86 32.5t86 -32.5q33 -31 33 -82.5t-33 -83.5q-33 -31 -86 -31t-86 31q-31 33 -31 84zM532 1147q0 51 31 82q33 33 86 33t86 -33q33 -31 33 -82t-33 -84q-33 -31 -86 -31t-86 31q-31 33 -31 84z" />
<glyph unicode="&#xf8;" horiz-adv-x="1255" d="M100 512q0 233 150 383q152 154 377 154q123 0 231 -50l107 168h182l-160 -254q168 -156 168 -401q0 -233 -149 -385q-152 -152 -379 -152q-109 0 -207 39l-98 -157h-183l148 235q-186 156 -187 420zM285 512q0 -164 98 -268l383 610q-68 29 -139 29q-147 0 -246 -105 q-96 -106 -96 -266zM512 160q54 -19 115 -19q152 0 245 105q98 104 99 266q0 147 -82 248z" />
<glyph unicode="&#xf9;" horiz-adv-x="1259" d="M162 381v643h190v-604q0 -125 40 -196.5t155 -71.5q145 0 239 104q94 106 95 264v504h190v-1024h-178l-4 143q0 23 6 66l2 12h-4q-35 -86 -139 -168q-102 -78 -242 -78q-350 0 -350 406zM291 1499h248l192 -346h-172z" />
<glyph unicode="&#xfa;" horiz-adv-x="1259" d="M162 381v643h190v-604q0 -125 40 -196.5t155 -71.5q145 0 239 104q94 106 95 264v504h190v-1024h-178l-4 143q0 23 6 66l2 12h-4q-35 -86 -139 -168q-102 -78 -242 -78q-350 0 -350 406zM516 1153l193 346h247l-266 -346h-174z" />
<glyph unicode="&#xfb;" horiz-adv-x="1259" d="M162 381v643h190v-604q0 -125 40 -196.5t155 -71.5q145 0 239 104q94 106 95 264v504h190v-1024h-178l-4 143q0 23 6 66l2 12h-4q-35 -86 -139 -168q-102 -78 -242 -78q-350 0 -350 406zM311 1153l230 346h159l228 -346h-174l-133 211l-136 -211h-174z" />
<glyph unicode="&#xfc;" horiz-adv-x="1259" d="M162 381v643h190v-604q0 -125 40 -196.5t155 -71.5q145 0 239 104q94 106 95 264v504h190v-1024h-178l-4 143q0 23 6 66l2 12h-4q-35 -86 -139 -168q-102 -78 -242 -78q-350 0 -350 406zM293 1321q0 53 32.5 85t86 32t86 -33t32.5 -84t-32.5 -83t-86 -32t-86 32t-32.5 83 zM684 1321q0 51 33 84t84 33q53 0 86 -32t33 -85q0 -51 -33 -83t-86 -32q-51 0 -84 32t-33 83z" />
<glyph unicode="&#xfd;" horiz-adv-x="1060" d="M-2 -299q47 -12 111 -12q109 0 180 76.5t143 246.5l-428 1012h211l143 -371l54 -141q63 -160 118 -307l175 448l141 371h211l-404 -977q-104 -258 -211 -385q-115 -137 -313 -137q-92 0 -131 18v158zM430 1153l193 346h247l-266 -346h-174z" />
<glyph unicode="&#xfe;" horiz-adv-x="1306" d="M186 -451v1926h191v-529l-8 -84h4q43 82 139 134.5t215 52.5q205 0 340 -152t135 -385q0 -238 -135 -387q-131 -150 -336 -150q-115 0 -213 57.5t-143 143.5h-4q6 -31 6 -84v-543h-191zM379 512q0 -178 96 -274.5t225 -96.5q139 0 230 103q88 102 88 268q0 164 -88 266 q-90 104 -230 105q-129 0 -225 -96.5t-96 -274.5z" />
<glyph unicode="&#xff;" horiz-adv-x="1060" d="M-2 -299q47 -12 111 -12q109 0 180 76.5t143 246.5l-428 1012h211l143 -371l54 -141q63 -160 118 -307l175 448l141 371h211l-404 -977q-104 -258 -211 -385q-115 -137 -313 -137q-92 0 -131 18v158zM217 1321q0 53 33 85t86 32t86 -33t33 -84t-33 -83t-86 -32t-86 32 t-33 83zM616.5 1276q-30.5 78 22.5 129q39 31 86 33t86 -32t33 -85q0 -51 -33 -83t-86 -32q-78 -8 -108.5 70z" />
<glyph unicode="&#x152;" horiz-adv-x="2127" d="M82 737q0 322 211 541q211 221 524 221q227 0 395 -121v97h803v-166h-606v-480h475v-165h-475v-498h637v-166h-834v94q-168 -119 -395 -119q-311 0 -524 220q-211 217 -211 542zM281 737q0 -248 151 -415q154 -164 385 -164q252 0 395 155v846q-147 158 -395 158 q-231 0 -385 -166q-152 -164 -151 -414z" />
<glyph unicode="&#x153;" horiz-adv-x="1769" d="M100 512q0 231 146 383q147 154 370 154q178 0 318 -111q127 111 299 111q207 0 323 -140q119 -137 119 -338q0 -18 -2 -58t-2 -42h-725v-2q4 -152 95.5 -240t244.5 -88q205 0 350 97v-175q-145 -88 -362 -88q-203 0 -338 111q-133 -111 -320 -111q-223 0 -370 152 q-145 156 -146 385zM285 512q0 -164 94 -266q96 -105 237 -105q117 0 207 78q-72 156 -71 297q0 156 71 289q-90 78 -207 78q-141 0 -237 -105q-94 -102 -94 -266zM948 606h539q2 123 -66.5 203t-189.5 80q-119 0 -195 -80t-88 -203z" />
<glyph unicode="&#x178;" horiz-adv-x="1241" d="M-10 1475h219l412 -701l411 701h219l-532 -889v-586h-197v586zM305 1786q0 51 33 83t86 32t86 -32t33 -83t-33 -84t-86 -33t-86 32t-33 85zM696 1786q0 51 33 83t86 32t86 -32t33 -83t-33 -84t-86 -33t-86 32t-33 85z" />
<glyph unicode="&#x2c6;" horiz-adv-x="800" d="M92 1153l230 346h159l228 -346h-174l-134 211l-135 -211h-174z" />
<glyph unicode="&#x2dc;" horiz-adv-x="833" d="M92 1202v160q59 78 178 78q59 0 155.5 -39t141.5 -39q104 0 174 86v-158q-25 -33 -74 -56.5t-104 -23.5q-59 0 -155 39q-100 41 -142 41q-104 0 -174 -88z" />
<glyph unicode="&#x2000;" horiz-adv-x="1005" />
<glyph unicode="&#x2001;" horiz-adv-x="2011" />
<glyph unicode="&#x2002;" horiz-adv-x="1005" />
<glyph unicode="&#x2003;" horiz-adv-x="2011" />
<glyph unicode="&#x2004;" horiz-adv-x="670" />
<glyph unicode="&#x2005;" horiz-adv-x="502" />
<glyph unicode="&#x2006;" horiz-adv-x="335" />
<glyph unicode="&#x2007;" horiz-adv-x="335" />
<glyph unicode="&#x2008;" horiz-adv-x="251" />
<glyph unicode="&#x2009;" horiz-adv-x="402" />
<glyph unicode="&#x200a;" horiz-adv-x="111" />
<glyph unicode="&#x2010;" horiz-adv-x="794" d="M92 500v157h610v-157h-610z" />
<glyph unicode="&#x2011;" horiz-adv-x="794" d="M92 500v157h610v-157h-610z" />
<glyph unicode="&#x2012;" horiz-adv-x="794" d="M92 500v157h610v-157h-610z" />
<glyph unicode="&#x2013;" horiz-adv-x="1191" d="M92 500v157h1008v-157h-1008z" />
<glyph unicode="&#x2014;" horiz-adv-x="1634" d="M92 500v157h1450v-157h-1450z" />
<glyph unicode="&#x2018;" horiz-adv-x="397" d="M20 1049l209 561h158l-158 -561h-209z" />
<glyph unicode="&#x2019;" horiz-adv-x="397" d="M10 1049l158 561h209l-209 -561h-158z" />
<glyph unicode="&#x201a;" horiz-adv-x="397" d="M10 -289l158 561h209l-209 -561h-158z" />
<glyph unicode="&#x201c;" horiz-adv-x="739" d="M20 1049l209 561h158l-158 -561h-209zM362 1049l209 561h158l-158 -561h-209z" />
<glyph unicode="&#x201d;" horiz-adv-x="745" d="M10 1049l158 561h209l-209 -561h-158zM358 1049l158 561h209l-209 -561h-158z" />
<glyph unicode="&#x201e;" horiz-adv-x="745" d="M10 -289l158 561h209l-209 -561h-158zM358 -289l158 561h209l-209 -561h-158z" />
<glyph unicode="&#x2022;" horiz-adv-x="559" d="M92 735q0 84 51.5 134.5t135 50.5t136 -51.5t52.5 -133.5q0 -80 -52.5 -130t-136 -50t-135 50t-51.5 130z" />
<glyph unicode="&#x2026;" horiz-adv-x="1280" d="M92 90q0 53 33 85t86 32t86 -33t33 -84t-33 -83t-86 -32t-86 32t-33 83zM520 90q0 53 33 85t86 32t86 -33t33 -84t-33 -83t-86 -32t-86 32t-33 83zM950 90q0 53 33 85t86 32t86 -33t33 -84t-33 -83t-86 -32t-86 32t-33 83z" />
<glyph unicode="&#x202f;" horiz-adv-x="402" />
<glyph unicode="&#x2039;" horiz-adv-x="739" d="M113 512l323 512h211l-332 -512l332 -512h-211z" />
<glyph unicode="&#x203a;" horiz-adv-x="739" d="M92 0l332 512l-332 512h211l324 -512l-324 -512h-211z" />
<glyph unicode="&#x205f;" horiz-adv-x="502" />
<glyph unicode="&#x20ac;" horiz-adv-x="1638" d="M82 512v135h223q-4 37 -4 90q0 49 4 90h-203v138h230q68 244 264 387q197 147 461 147q244 0 418 -106v-187q-205 111 -418 111q-180 0 -318.5 -94.5t-199.5 -257.5h735v-138h-768q-6 -45 -6 -90q0 -47 6 -90h747v-135h-714q61 -164 199.5 -259t318.5 -95q223 0 428 108 v-186q-172 -104 -428 -105q-264 0 -461 147.5t-264 389.5h-250z" />
<glyph unicode="&#x2122;" horiz-adv-x="1345" d="M72 1354v121h493v-121h-180v-496h-137v496h-176zM647 858v617h92l219 -297l224 297h92v-617h-127v381l-189 -231l-184 233v-383h-127z" />
<glyph unicode="&#x25fc;" horiz-adv-x="1024" d="M0 0v1024h1024v-1024h-1024z" />
</font>
</defs>
</svg>
